<svg xmlns="http://www.w3.org/2000/svg" xmlns:xlink="http://www.w3.org/1999/xlink" width="500" zoomAndPan="magnify" viewBox="0 0 375 374.999991" height="500" preserveAspectRatio="xMidYMid meet" version="1.2"><defs><clipPath id="71a3a03c5d"><path d="M 43.652344 43.652344 L 331.347656 43.652344 L 331.347656 331.347656 L 43.652344 331.347656 Z M 43.652344 43.652344 "/></clipPath><clipPath id="12f7f9d9b4"><path d="M 187.5 43.652344 C 108.054688 43.652344 43.652344 108.054688 43.652344 187.5 C 43.652344 266.945312 108.054688 331.347656 187.5 331.347656 C 266.945312 331.347656 331.347656 266.945312 331.347656 187.5 C 331.347656 108.054688 266.945312 43.652344 187.5 43.652344 Z M 187.5 43.652344 "/></clipPath></defs><g id="6f9b44fee3"><g clip-rule="nonzero" clip-path="url(#71a3a03c5d)"><g clip-rule="nonzero" clip-path="url(#12f7f9d9b4)"><path style=" stroke:none;fill-rule:nonzero;fill:#2e282a;fill-opacity:1;" d="M 43.652344 43.652344 L 331.347656 43.652344 L 331.347656 331.347656 L 43.652344 331.347656 Z M 43.652344 43.652344 "/></g></g><g style="fill:#ffffff;fill-opacity:1;"><g transform="translate(89.035963, 243.408279)"><path style="stroke:none" d="M 32.046875 39.421875 C 24.722656 39.421875 18.570312 38.039062 13.59375 35.28125 C 8.613281 32.519531 4.863281 28.738281 2.34375 23.9375 C -0.175781 19.132812 -1.4375 13.675781 -1.4375 7.5625 C -1.4375 1.4375 -0.238281 -5.070312 2.15625 -11.96875 C 4.5625 -18.863281 8.550781 -25.671875 14.125 -32.390625 C 19.707031 -39.117188 27.238281 -45.363281 36.71875 -51.125 L 36.71875 -100.796875 L 11.703125 -100.796875 L 11.703125 -126 L 65.34375 -126 L 65.34375 1.4375 C 65.34375 9 64.140625 15.628906 61.734375 21.328125 C 59.335938 27.023438 55.675781 31.460938 50.75 34.640625 C 45.832031 37.828125 39.597656 39.421875 32.046875 39.421875 Z M 30.421875 13.5 C 31.859375 13.5 33.113281 13.078125 34.1875 12.234375 C 35.269531 11.398438 36.082031 10.234375 36.625 8.734375 C 37.164062 7.234375 37.4375 5.460938 37.4375 3.421875 L 37.4375 -24.125 C 34.082031 -21.363281 31.351562 -18.507812 29.25 -15.5625 C 27.144531 -12.625 25.613281 -9.59375 24.65625 -6.46875 C 23.695312 -3.351562 23.21875 0.0625 23.21875 3.78125 C 23.21875 6.894531 23.9375 9.289062 25.375 10.96875 C 26.820312 12.65625 28.503906 13.5 30.421875 13.5 Z M 30.421875 13.5 "/></g></g><g style="fill:#ffffff;fill-opacity:1;"><g transform="translate(147.53597, 243.408279)"><path style="stroke:none" d="M 99.71875 2.15625 C 92.15625 2.15625 85.375 0.507812 79.375 -2.78125 C 73.375 -6.082031 68.632812 -10.671875 65.15625 -16.546875 C 61.675781 -22.429688 59.9375 -29.097656 59.9375 -36.546875 L 59.9375 -91.625 C 59.9375 -93.539062 59.457031 -95.28125 58.5 -96.84375 C 57.539062 -98.40625 56.28125 -99.664062 54.71875 -100.625 C 53.15625 -101.582031 51.414062 -102.0625 49.5 -102.0625 C 47.582031 -102.0625 45.84375 -101.582031 44.28125 -100.625 C 42.71875 -99.664062 41.484375 -98.40625 40.578125 -96.84375 C 39.679688 -95.28125 39.234375 -93.539062 39.234375 -91.625 L 39.234375 0 L 9.71875 0 L 9.71875 -89.453125 C 9.71875 -97.015625 11.425781 -103.675781 14.84375 -109.4375 C 18.269531 -115.195312 23.007812 -119.753906 29.0625 -123.109375 C 35.125 -126.472656 41.9375 -128.15625 49.5 -128.15625 C 57.175781 -128.15625 64.015625 -126.472656 70.015625 -123.109375 C 76.015625 -119.753906 80.753906 -115.195312 84.234375 -109.4375 C 87.710938 -103.675781 89.453125 -97.015625 89.453125 -89.453125 L 89.453125 -34.375 C 89.453125 -32.457031 89.929688 -30.6875 90.890625 -29.0625 C 91.859375 -27.445312 93.09375 -26.1875 94.59375 -25.28125 C 96.09375 -24.382812 97.742188 -23.9375 99.546875 -23.9375 C 101.460938 -23.9375 103.226562 -24.382812 104.84375 -25.28125 C 106.46875 -26.1875 107.757812 -27.445312 108.71875 -29.0625 C 109.675781 -30.6875 110.15625 -32.457031 110.15625 -34.375 L 110.15625 -126 L 139.5 -126 L 139.5 -36.546875 C 139.5 -29.097656 137.757812 -22.429688 134.28125 -16.546875 C 130.800781 -10.671875 126.0625 -6.082031 120.0625 -2.78125 C 114.0625 0.507812 107.28125 2.15625 99.71875 2.15625 Z M 99.71875 2.15625 "/></g></g></g></svg>